<svg width="24" height="24" viewBox="0 0 24 24" fill="none" xmlns="http://www.w3.org/2000/svg">
<path fill-rule="evenodd" clip-rule="evenodd" d="M15 7H4V12H5V14H4C3.47005 13.9984 2.96224 13.7872 2.58751 13.4125C2.21277 13.0378 2.00156 12.53 2 12V4C2.00156 3.47005 2.21277 2.96224 2.58751 2.58751C2.96224 2.21277 3.47005 2.00156 4 2H15C15.53 2.00156 16.0378 2.21277 16.4125 2.58751C16.7872 2.96224 16.9984 3.47005 17 4V8H15V7ZM15 4H4V5H15V4ZM9 10H20C20.53 10.0016 21.0378 10.2128 21.4125 10.5875C21.7872 10.9622 21.9984 11.47 22 12V20C21.9984 20.53 21.7872 21.0378 21.4125 21.4125C21.0378 21.7872 20.53 21.9984 20 22H9C8.47005 21.9984 7.96224 21.7872 7.58751 21.4125C7.21277 21.0378 7.00156 20.53 7 20V12C7.00156 11.47 7.21277 10.9622 7.58751 10.5875C7.96224 10.2128 8.47005 10.0016 9 10ZM9 20H20V15H9V20ZM9 13H20V12H9V13Z" fill="#060A0D"/>
</svg>
