<svg width="24" height="24" viewBox="0 0 24 24" fill="none" xmlns="http://www.w3.org/2000/svg">
<path fill-rule="evenodd" clip-rule="evenodd" d="M8 6V5C8 4.73478 8.10536 4.48043 8.29289 4.29289C8.48043 4.10536 8.73478 4 9 4H15C15.2652 4 15.5196 4.10536 15.7071 4.29289C15.8946 4.48043 16 4.73478 16 5V6H20C20.5304 6 21.0391 6.19667 21.4142 6.54673C21.7893 6.8968 22 7.3716 22 7.86667V18.1333C22 18.6284 21.7893 19.1032 21.4142 19.4533C21.0391 19.8033 20.5304 20 20 20H4C3.46957 20 2.96086 19.8033 2.58579 19.4533C2.21071 19.1032 2 18.6284 2 18.1333V7.86667C2 7.3716 2.21071 6.8968 2.58579 6.54673C2.96086 6.19667 3.46957 6 4 6H8ZM11 10H13C13.5523 10 14 10.4477 14 11H20V7.86667H4V11H10C10 10.4477 10.4477 10 11 10ZM4 13V18.1333H20V13H14C14 13.5523 13.5523 14 13 14H11C10.4477 14 10 13.5523 10 13H4Z" fill="#060A0D"/>
</svg>
