<svg width="24" height="24" viewBox="0 0 24 24" fill="none" xmlns="http://www.w3.org/2000/svg">
<path fill-rule="evenodd" clip-rule="evenodd" d="M10 7H8V17H10V7ZM8 18V20H10V18H8ZM7 22H11C11.5523 22 12 21.5523 12 21V5.69867L16.1688 21.2567C16.3117 21.7901 16.86 22.1067 17.3935 21.9638L21.2572 20.9285C21.7907 20.7856 22.1072 20.2372 21.9643 19.7038L17.5644 3.28301C17.4214 2.74955 16.8731 2.43296 16.3396 2.5759L12.4759 3.61118C12.2862 3.66201 12.1239 3.76411 12 3.89858V3C12 2.44772 11.5523 2 11 2H7C6.44772 2 6 2.44772 6 3V5H3C2.44772 5 2 5.44772 2 6V21C2 21.5523 2.44772 22 3 22H7ZM6 17V10H4V17H6ZM6 18V20H4V18H6ZM6 7V9H4V7H6ZM8 6H10V4H8V6ZM13.9595 5.28421L14.486 7.24898L16.4178 6.73134L15.8914 4.76658L13.9595 5.28421ZM17.0653 16.8753L14.7448 8.21491L16.6766 7.69727L18.9972 16.3577L17.0653 16.8753ZM17.3241 17.8413L17.8418 19.7731L19.7736 19.2555L19.256 17.3236L17.3241 17.8413Z" fill="#060A0D"/>
</svg>
