<svg width="24" height="24" viewBox="0 0 24 24" fill="none" xmlns="http://www.w3.org/2000/svg">
<path fill-rule="evenodd" clip-rule="evenodd" d="M5 2C4.44772 2 4 2.44772 4 3V21C4 21.5523 4.44772 22 5 22H12C12.5523 22 13 21.5523 13 21C13 20.4477 12.5523 20 12 20H6V4H12C12.5523 4 13 3.55228 13 3C13 2.44772 12.5523 2 12 2H5ZM19.6905 12.7234C19.8882 12.5347 20 12.2733 20 12C20 11.7267 19.8882 11.4653 19.6905 11.2766L16.0238 7.77664C15.6243 7.39531 14.9913 7.41003 14.61 7.80952C14.2286 8.20902 14.2434 8.84202 14.6429 9.22336L16.5041 11H9C8.44771 11 8 11.4477 8 12C8 12.5523 8.44771 13 9 13H16.5041L14.6429 14.7766C14.2434 15.158 14.2286 15.791 14.61 16.1905C14.9913 16.59 15.6243 16.6047 16.0238 16.2234L19.6905 12.7234Z" fill="black"/>
</svg>
