<svg width="19" height="24" viewBox="0 0 19 24" fill="none" xmlns="http://www.w3.org/2000/svg">
<path fill-rule="evenodd" clip-rule="evenodd" d="M4.58534 7.13295C3.86321 5.14891 4.88619 2.95512 6.87023 2.23299C8.85427 1.51086 11.0481 2.53384 11.7702 4.51788L12.32 6.02859C12.5089 6.54756 13.0828 6.81515 13.6018 6.62626C14.1207 6.43737 14.3883 5.86352 14.1994 5.34455L13.6496 3.83384C12.5497 0.811846 9.20819 -0.746309 6.18619 0.353608C3.16419 1.45352 1.60604 4.795 2.70596 7.81699L2.7549 7.95146C1.21268 8.07617 0 9.36726 0 10.9416V20.999C0 22.6559 1.34315 23.999 3 23.999H15.4689C17.1258 23.999 18.4689 22.6559 18.4689 20.999V10.9416C18.4689 9.28474 17.1258 7.94159 15.4689 7.94159H4.87966L4.58534 7.13295ZM3.90167 9.94159C4.08747 9.99886 4.29131 10.0026 4.48922 9.94159H15.4689C16.0212 9.94159 16.4689 10.3893 16.4689 10.9416V20.999C16.4689 21.5513 16.0212 21.999 15.4689 21.999H3C2.44772 21.999 2 21.5513 2 20.999V10.9416C2 10.3893 2.44772 9.94159 3 9.94159H3.90167ZM10.2324 16.829C10.604 16.5345 10.8423 16.0793 10.8423 15.5684C10.8423 14.6805 10.1225 13.9607 9.23461 13.9607C8.34673 13.9607 7.62695 14.6805 7.62695 15.5684C7.62695 16.0772 7.8634 16.5309 8.23242 16.8255V18.7836C8.23242 19.3358 8.68014 19.7836 9.23242 19.7836C9.78471 19.7836 10.2324 19.3358 10.2324 18.7836V16.829Z" fill="#060A0D"/>
</svg>
