<svg width="24" height="24" viewBox="0 0 24 24" fill="none" xmlns="http://www.w3.org/2000/svg">
<g clip-path="url(#clip0_21_533)">
<path fill-rule="evenodd" clip-rule="evenodd" d="M18 4H20C21.1025 4 22 4.897 22 6V18.8779C22 20.3935 20.9287 21.7178 19.5078 21.958C19.3399 21.9863 19.1719 22 19.0049 22L19.0015 21.9997L19 22H5C3.3457 22 2 20.6543 2 19V3C2 2.4478 2.4473 2 3 2H17C17.5527 2 18 2.4478 18 3V4ZM4 19C4 19.5518 4.4482 20 5 20H16.1709C16.152 19.9466 16.139 19.8906 16.1261 19.8347L16.126 19.8346C16.1197 19.8074 16.1134 19.7801 16.1064 19.7531C16.1018 19.7354 16.0969 19.7179 16.092 19.7005C16.0823 19.666 16.0727 19.6317 16.0655 19.5963C16.0263 19.4028 16 19.2049 16 19V4H4V19ZM19.1758 19.9853C19.6377 19.9072 20 19.4209 20 18.8779V5.9985L18 5.9995V19C18 19.1422 18.0333 19.2801 18.091 19.4073C18.0978 19.4222 18.1076 19.4349 18.1175 19.4477C18.1255 19.4579 18.1334 19.4682 18.1398 19.4796C18.1926 19.5731 18.2548 19.6617 18.3363 19.7359C18.4122 19.8043 18.4957 19.8641 18.5898 19.9069C18.5945 19.9091 18.5989 19.9114 18.6034 19.9137C18.6103 19.9173 18.6173 19.9208 18.625 19.9241C18.7318 19.9675 18.8487 19.9901 18.9701 19.9939L18.9805 19.9942C19.0428 19.996 19.1054 19.9979 19.1758 19.9853ZM7 12H13C13.5527 12 14 12.4478 14 13C14 13.5527 13.5527 14 13 14H7C6.4473 14 6 13.5527 6 13C6 12.4478 6.4473 12 7 12ZM13 16H7C6.4473 16 6 16.4473 6 17C6 17.5527 6.4473 18 7 18H13C13.5527 18 14 17.5527 14 17C14 16.4473 13.5527 16 13 16ZM7 6H13C13.5523 6 14 6.44772 14 7V9C14 9.55228 13.5523 10 13 10H7C6.44772 10 6 9.55228 6 9V7C6 6.44772 6.44772 6 7 6Z" fill="#060A0D"/>
</g>
<defs>
<clipPath id="clip0_21_533">
<rect width="24" height="24" fill="white"/>
</clipPath>
</defs>
</svg>
