<svg width="24" height="24" viewBox="0 0 24 24" fill="none" xmlns="http://www.w3.org/2000/svg">
<g clip-path="url(#clip0_21_475)">
<path d="M14.6562 2.0547C14.5055 2.00272 14.3447 1.98749 14.187 2.01028C14.0293 2.03306 13.8793 2.0932 13.7495 2.18569C13.6198 2.27818 13.514 2.40033 13.441 2.54198C13.368 2.68362 13.33 2.84066 13.33 3V8.59H10.67V3C10.67 2.84067 10.6319 2.68365 10.5589 2.54201C10.4859 2.40038 10.3802 2.27823 10.2504 2.18575C10.1207 2.09326 9.97071 2.03312 9.81302 2.01032C9.65533 1.98753 9.49448 2.00274 9.34386 2.0547C7.90117 2.55992 6.63389 3.46876 5.69266 4.67319C4.75143 5.87763 4.17584 7.327 4.0343 8.84902C3.89276 10.371 4.19122 11.9017 4.89422 13.259C5.59721 14.6164 6.67517 15.7433 7.99996 16.5059V21C7.99996 21.2652 8.10531 21.5196 8.29285 21.7071C8.48039 21.8946 8.73474 22 8.99996 22C9.26517 22 9.51953 21.8946 9.70706 21.7071C9.8946 21.5196 9.99996 21.2652 9.99996 21V15.9C10 15.7102 9.9461 15.5242 9.84442 15.3639C9.74274 15.2036 9.59753 15.0755 9.42576 14.9947C8.4677 14.5413 7.64721 13.8416 7.04814 12.9672C6.44907 12.0927 6.09291 11.0749 6.01604 10.0178C5.93917 8.96064 6.14437 7.90203 6.61064 6.95015C7.07692 5.99827 7.78757 5.18726 8.66996 4.6V9.59C8.66996 9.85522 8.77531 10.1096 8.96285 10.2971C9.15039 10.4846 9.40474 10.59 9.66996 10.59H14.33C14.5952 10.59 14.8495 10.4846 15.0371 10.2971C15.2246 10.1096 15.33 9.85522 15.33 9.59V4.6C16.2124 5.18725 16.9231 5.99828 17.3894 6.9502C17.8558 7.90212 18.061 8.96078 17.9841 10.018C17.9072 11.0752 17.551 12.093 16.9519 12.9675C16.3528 13.8419 15.5322 14.5416 14.5741 14.995C14.4023 15.0758 14.2572 15.2038 14.1555 15.3641C14.0539 15.5243 13.9999 15.7102 14 15.9V21C14 21.2652 14.1053 21.5196 14.2928 21.7071C14.4804 21.8946 14.7347 22 15 22C15.2652 22 15.5195 21.8946 15.7071 21.7071C15.8946 21.5196 16 21.2652 16 21V16.5059C17.3247 15.7433 18.4027 14.6164 19.1057 13.2591C19.8087 11.9017 20.1072 10.3711 19.9657 8.84905C19.8241 7.32704 19.2485 5.87766 18.3073 4.67322C17.3661 3.46878 16.0988 2.55993 14.6562 2.0547Z" fill="#060A0D"/>
</g>
<defs>
<clipPath id="clip0_21_475">
<rect width="24" height="24" fill="white"/>
</clipPath>
</defs>
</svg>
