<svg width="24" height="24" viewBox="0 0 24 24" fill="none" xmlns="http://www.w3.org/2000/svg">
<path fill-rule="evenodd" clip-rule="evenodd" d="M4 5C4 4.44772 4.44772 4 5 4H10C10.5523 4 11 4.44772 11 5V10C11 10.5523 10.5523 11 10 11H5C4.44772 11 4 10.5523 4 10V5ZM6 6V9H9V6H6ZM5 13C4.44772 13 4 13.4477 4 14V19C4 19.5523 4.44772 20 5 20H10C10.5523 20 11 19.5523 11 19V14C11 13.4477 10.5523 13 10 13H5ZM6 18V15H9V18H6ZM14 13C13.4477 13 13 13.4477 13 14V19C13 19.5523 13.4477 20 14 20H19C19.5523 20 20 19.5523 20 19V14C20 13.4477 19.5523 13 19 13H14ZM15 18V15H18V18H15ZM16.5 11C18.433 11 20 9.433 20 7.5C20 5.567 18.433 4 16.5 4C14.567 4 13 5.567 13 7.5C13 9.433 14.567 11 16.5 11Z" fill="black"/>
</svg>
